<svg width="121" height="15" viewBox="0 0 121 15" fill="none" xmlns="http://www.w3.org/2000/svg">
<path d="M68.4309 7.58527e-08H53.5588C52.333 -0.000175007 51.1262 0.302746 50.0458 0.881793C48.9654 1.46084 48.045 2.29805 47.3664 3.31888C46.6878 4.33971 46.2722 5.51249 46.1565 6.7328C46.0409 7.95312 46.2287 9.18311 46.7034 10.3133C47.178 11.4434 47.9248 12.4387 48.8771 13.2104C49.8295 13.9822 50.9579 14.5064 52.1619 14.7366C53.3658 14.9668 54.6081 14.8956 55.7779 14.5296C56.9478 14.1635 58.0089 13.5139 58.867 12.6385H63.1195C63.9774 13.5138 65.0385 14.1634 66.2082 14.5295C67.3779 14.8955 68.62 14.9668 69.8238 14.7368C71.0277 14.5068 72.156 13.9827 73.1084 13.2112C74.0608 12.4397 74.8076 11.4447 75.2825 10.3148C75.7573 9.18484 75.9455 7.95504 75.8301 6.73483C75.7148 5.51462 75.2996 4.34185 74.6214 3.32091C73.9433 2.29997 73.0232 1.46253 71.9432 0.883138C70.8631 0.303742 69.6566 0.000361274 68.4309 7.58527e-08V7.58527e-08ZM57.6478 7.99199C57.6478 8.13987 57.589 8.2817 57.4844 8.38626C57.3799 8.49083 57.2381 8.54957 57.0902 8.54957H54.674V10.9658C54.674 11.1136 54.6152 11.2555 54.5107 11.36C54.4061 11.4646 54.2643 11.5233 54.1164 11.5233H53.0012C52.8534 11.5233 52.7115 11.4646 52.607 11.36C52.5024 11.2555 52.4437 11.1136 52.4437 10.9658V8.54957H50.0275C49.8796 8.54957 49.7378 8.49083 49.6332 8.38626C49.5286 8.2817 49.4699 8.13987 49.4699 7.99199V6.87683C49.4699 6.72895 49.5286 6.58713 49.6332 6.48256C49.7378 6.378 49.8796 6.31925 50.0275 6.31925H52.4437V3.90307C52.4437 3.75519 52.5024 3.61336 52.607 3.5088C52.7115 3.40423 52.8534 3.34549 53.0012 3.34549H54.1164C54.2643 3.34549 54.4061 3.40423 54.5107 3.5088C54.6152 3.61336 54.674 3.75519 54.674 3.90307V6.31925H57.0902C57.2381 6.31925 57.3799 6.378 57.4844 6.48256C57.589 6.58713 57.6478 6.72895 57.6478 6.87683V7.99199ZM67.6842 11.5233C67.3166 11.5233 66.9573 11.4143 66.6516 11.2101C66.346 11.0059 66.1078 10.7156 65.9671 10.376C65.8264 10.0364 65.7896 9.66267 65.8613 9.30214C65.933 8.94161 66.11 8.61044 66.37 8.35051C66.6299 8.09058 66.9611 7.91356 67.3216 7.84185C67.6821 7.77013 68.0559 7.80694 68.3955 7.94761C68.7351 8.08829 69.0254 8.32651 69.2296 8.63215C69.4338 8.9378 69.5428 9.29714 69.5428 9.66474C69.5428 10.1577 69.347 10.6304 68.9984 10.979C68.6499 11.3275 68.1771 11.5233 67.6842 11.5233V11.5233ZM70.658 7.06269C70.2904 7.06269 69.931 6.95369 69.6254 6.74946C69.3197 6.54524 69.0815 6.25496 68.9408 5.91535C68.8002 5.57573 68.7634 5.20203 68.8351 4.84149C68.9068 4.48096 69.0838 4.14979 69.3437 3.88986C69.6037 3.62993 69.9348 3.45291 70.2954 3.3812C70.6559 3.30948 71.0296 3.34629 71.3692 3.48696C71.7088 3.62764 71.9991 3.86586 72.2033 4.1715C72.4076 4.47715 72.5166 4.83649 72.5166 5.20409C72.5166 5.69702 72.3208 6.16976 71.9722 6.51832C71.6237 6.86688 71.1509 7.06269 70.658 7.06269Z" fill="#003440"/>
<path d="M3.00062 11.4498V10.1115H1.66233V8.77324H0.324036V4.75837H1.66233V3.42008H3.00062V2.08179H9.69207V3.42008H4.33891V4.75837H3.00062V8.77324H4.33891V10.1115H7.01549V7.43495H5.6772V6.09666H9.69207V11.4498H3.00062Z" fill="#003440"/>
<path d="M11.0304 11.4498V4.75837H12.3686V3.42008H13.7069V2.08179H17.7218V3.42008H19.0601V4.75837H20.3984V11.4498H17.7218V8.77324H13.7069V11.4498H11.0304ZM13.7069 7.43495H17.7218V4.75837H16.3835V3.42008H15.0452V4.75837H13.7069V7.43495Z" fill="#003440"/>
<path d="M21.7367 11.4498V2.08179H24.4133V3.42008H25.7515V4.75837H27.0898V3.42008H28.4281V2.08179H31.1047V11.4498H28.4281V6.09666H27.0898V8.77324H25.7515V6.09666H24.4133V11.4498H21.7367Z" fill="#003440"/>
<path d="M32.443 11.4498V2.08179H41.811V3.42008H35.1196V6.09666H40.4727V7.43495H35.1196V10.1115H41.811V11.4498H32.443Z" fill="#003440"/>
<path d="M80.1753 11.4498V10.1115H78.837V3.42008H80.1753V2.08179H86.8668V3.42008H88.2051V10.1115H86.8668V11.4498H80.1753ZM81.5136 10.1115H85.5285V3.42008H81.5136V10.1115Z" fill="#003440"/>
<path d="M93.5582 11.4498V10.1115H92.2199V8.77324H90.8816V7.43495H89.5434V2.08179H92.2199V6.09666H93.5582V7.43495H94.8965V6.09666H96.2348V2.08179H98.9114V7.43495H97.5731V8.77324H96.2348V10.1115H94.8965V11.4498H93.5582Z" fill="#003440"/>
<path d="M100.25 11.4498V2.08179H109.618V3.42008H102.926V6.09666H108.279V7.43495H102.926V10.1115H109.618V11.4498H100.25Z" fill="#003440"/>
<path d="M110.956 11.4498V2.08179H118.986V3.42008H120.324V7.43495H117.647V8.77324H118.986V10.1115H120.324V11.4498H116.309V10.1115H114.971V8.77324H113.633V11.4498H110.956ZM113.633 7.43495H116.309V6.09666H117.647V3.42008H113.633V7.43495Z" fill="#003440"/>
</svg>
