<svg width="50" height="25" viewBox="0 0 50 25" fill="none" xmlns="http://www.w3.org/2000/svg">
<path d="M37.5046 1.27527e-07H12.5009C10.44 -0.00029423 8.41109 0.508991 6.59467 1.48252C4.77826 2.45604 3.23074 3.86359 2.08989 5.57987C0.94905 7.29614 0.250277 9.26787 0.055788 11.3195C-0.138701 13.3712 0.177128 15.4391 0.975157 17.3392C1.77319 19.2392 3.02865 20.9125 4.62979 22.21C6.23092 23.5075 8.12803 24.389 10.1522 24.7759C12.1764 25.1629 14.2649 25.0433 16.2317 24.4279C18.1985 23.8124 19.9827 22.7202 21.4253 21.2485H28.5747C30.0172 22.7201 31.8011 23.8122 33.7676 24.4277C35.7342 25.0431 37.8224 25.1629 39.8464 24.7762C41.8704 24.3895 43.7675 23.5084 45.3686 22.2113C46.9698 20.9142 48.2254 19.2414 49.0238 17.3417C49.8221 15.442 50.1384 13.3744 49.9445 11.3229C49.7506 9.27145 49.0525 7.29974 47.9124 5.58328C46.7722 3.86683 45.2254 2.45889 43.4095 1.48478C41.5937 0.510666 39.5652 0.000607392 37.5046 1.27527e-07V1.27527e-07ZM19.3754 13.4365C19.3754 13.6852 19.2766 13.9236 19.1008 14.0994C18.925 14.2752 18.6866 14.374 18.438 14.374H14.3758V18.4362C14.3758 18.6848 14.277 18.9232 14.1012 19.0991C13.9254 19.2749 13.6869 19.3736 13.4383 19.3736H11.5635C11.3148 19.3736 11.0764 19.2749 10.9006 19.0991C10.7248 18.9232 10.626 18.6848 10.626 18.4362V14.374H6.56382C6.3152 14.374 6.07676 14.2752 5.90095 14.0994C5.72515 13.9236 5.62639 13.6852 5.62639 13.4365V11.5617C5.62639 11.3131 5.72515 11.0746 5.90095 10.8988C6.07676 10.723 6.3152 10.6242 6.56382 10.6242H10.626V6.56203C10.626 6.31341 10.7248 6.07497 10.9006 5.89917C11.0764 5.72336 11.3148 5.6246 11.5635 5.6246H13.4383C13.6869 5.6246 13.9254 5.72336 14.1012 5.89917C14.277 6.07497 14.3758 6.31341 14.3758 6.56203V10.6242H18.438C18.6866 10.6242 18.925 10.723 19.1008 10.8988C19.2766 11.0746 19.3754 11.3131 19.3754 11.5617V13.4365ZM36.2492 19.3736C35.6312 19.3736 35.027 19.1904 34.5132 18.847C33.9993 18.5036 33.5988 18.0156 33.3623 17.4446C33.1258 16.8737 33.0639 16.2454 33.1845 15.6392C33.305 15.0331 33.6026 14.4763 34.0396 14.0393C34.4767 13.6023 35.0334 13.3047 35.6396 13.1841C36.2457 13.0635 36.874 13.1254 37.445 13.3619C38.016 13.5984 38.504 13.9989 38.8474 14.5128C39.1907 15.0267 39.374 15.6308 39.374 16.2488C39.374 17.0776 39.0448 17.8724 38.4587 18.4584C37.8727 19.0444 37.0779 19.3736 36.2492 19.3736V19.3736ZM41.2488 11.8742C40.6308 11.8742 40.0267 11.6909 39.5128 11.3475C38.9989 11.0042 38.5984 10.5162 38.3619 9.94518C38.1254 9.3742 38.0635 8.74591 38.1841 8.13976C38.3047 7.53361 38.6023 6.97683 39.0393 6.53982C39.4763 6.10282 40.0331 5.80521 40.6392 5.68464C41.2454 5.56407 41.8737 5.62595 42.4446 5.86246C43.0156 6.09896 43.5036 6.49948 43.847 7.01334C44.1903 7.52721 44.3736 8.13135 44.3736 8.74938C44.3736 9.57812 44.0444 10.3729 43.4584 10.9589C42.8724 11.5449 42.0776 11.8742 41.2488 11.8742Z" fill="url(#paint0_linear_231:36)"/>
<defs>
<linearGradient id="paint0_linear_231:36" x1="-2" y1="10.5" x2="47" y2="21.5" gradientUnits="userSpaceOnUse">
<stop stop-color="#E41EF5"/>
<stop offset="1" stop-color="#2098FB"/>
</linearGradient>
</defs>
</svg>
