<svg width="32" height="16" viewBox="0 0 32 16" fill="none" xmlns="http://www.w3.org/2000/svg">
<path d="M24.0029 8.16175e-08H8.00057C6.68163 -0.000188307 5.3831 0.325754 4.22059 0.94881C3.05808 1.57186 2.06767 2.4727 1.33753 3.57111C0.607392 4.66953 0.160177 5.93144 0.0357043 7.2445C-0.0887688 8.55756 0.113362 9.88102 0.624101 11.0971C1.13484 12.3131 1.93834 13.384 2.96306 14.2144C3.98779 15.0448 5.20194 15.6089 6.49743 15.8566C7.79292 16.1042 9.12954 16.0277 10.3883 15.6338C11.6471 15.24 12.7889 14.5409 13.7122 13.599H18.2878C19.211 14.5408 20.3527 15.2398 21.6113 15.6337C22.8699 16.0276 24.2063 16.1042 25.5017 15.8567C26.7971 15.6093 28.0112 15.0454 29.0359 14.2152C30.0607 13.3851 30.8643 12.3145 31.3752 11.0987C31.8862 9.88288 32.0886 8.55962 31.9645 7.24667C31.8404 5.93373 31.3936 4.67183 30.6639 3.5733C29.9342 2.47477 28.9442 1.57369 27.7821 0.950256C26.62 0.326826 25.3217 0.000388731 24.0029 8.16175e-08V8.16175e-08ZM12.4003 8.59939C12.4003 8.7585 12.337 8.91111 12.2245 9.02362C12.112 9.13613 11.9594 9.19934 11.8003 9.19934H9.20049V11.7992C9.20049 11.9583 9.13728 12.1109 9.02476 12.2234C8.91225 12.3359 8.75965 12.3991 8.60053 12.3991H7.40062C7.2415 12.3991 7.0889 12.3359 6.97638 12.2234C6.86387 12.1109 6.80066 11.9583 6.80066 11.7992V9.19934H4.20084C4.04173 9.19934 3.88912 9.13613 3.77661 9.02362C3.6641 8.91111 3.60089 8.7585 3.60089 8.59939V7.39947C3.60089 7.24035 3.6641 7.08775 3.77661 6.97524C3.88912 6.86272 4.04173 6.79951 4.20084 6.79951H6.80066V4.1997C6.80066 4.04058 6.86387 3.88798 6.97638 3.77547C7.0889 3.66295 7.2415 3.59974 7.40062 3.59974H8.60053C8.75965 3.59974 8.91225 3.66295 9.02476 3.77547C9.13728 3.88798 9.20049 4.04058 9.20049 4.1997V6.79951H11.8003C11.9594 6.79951 12.112 6.86272 12.2245 6.97524C12.337 7.08775 12.4003 7.24035 12.4003 7.39947V8.59939ZM23.1995 12.3991C22.804 12.3991 22.4173 12.2818 22.0884 12.0621C21.7595 11.8423 21.5032 11.53 21.3519 11.1646C21.2005 10.7991 21.1609 10.397 21.2381 10.0091C21.3152 9.62117 21.5057 9.26483 21.7854 8.98514C22.0651 8.70546 22.4214 8.51499 22.8093 8.43783C23.1973 8.36066 23.5994 8.40027 23.9648 8.55163C24.3302 8.703 24.6426 8.95932 24.8623 9.2882C25.0821 9.61707 25.1993 10.0037 25.1993 10.3993C25.1993 10.9297 24.9886 11.4383 24.6136 11.8134C24.2386 12.1884 23.7299 12.3991 23.1995 12.3991V12.3991ZM26.3993 7.59946C26.0037 7.59946 25.6171 7.48217 25.2882 7.26242C24.9593 7.04267 24.703 6.73034 24.5516 6.36491C24.4003 5.99949 24.3607 5.59738 24.4378 5.20945C24.515 4.82151 24.7055 4.46517 24.9851 4.18549C25.2648 3.9058 25.6212 3.71533 26.0091 3.63817C26.397 3.561 26.7991 3.60061 27.1646 3.75197C27.53 3.90334 27.8423 4.15966 28.0621 4.48854C28.2818 4.81741 28.3991 5.20407 28.3991 5.5996C28.3991 6.13 28.1884 6.63867 27.8134 7.01371C27.4383 7.38876 26.9297 7.59946 26.3993 7.59946Z" fill="#003440"/>
</svg>
